name ./resultDataOpenSim/trcMotMarkerGrf/sub06/grf-05-08.mot
datacolumns 19
datarows 17
range 1.52000000 1.58400000
endheader

                time	     ground_force_vx	     ground_force_vy	     ground_force_vz	     ground_force_px	     ground_force_py	     ground_force_pz	   l_ground_force_vx	   l_ground_force_vy	   l_ground_force_vz	   l_ground_force_px	   l_ground_force_py	   l_ground_force_pz	     ground_torque_x	     ground_torque_y	     ground_torque_z	   l_ground_torque_x	   l_ground_torque_y	   l_ground_torque_z	
          1.52000000	         47.29439974	        350.59457497	        -10.94343671	          0.89975772	          0.00000000	          0.10352215	          0.00000000	          0.00000000	          0.00000000	          0.00000000	          0.00000000	          0.00000000	          0.00000000	          1.60324094	          0.00000000	          0.00000000	          0.00000000	          0.00000000	
          1.52400000	         50.18476542	        363.71335351	        -12.18253268	          0.90007999	          0.00000000	          0.10332447	          0.00000000	          0.00000000	          0.00000000	          0.00000000	          0.00000000	          0.00000000	          0.00000000	          1.69420250	          0.00000000	          0.00000000	          0.00000000	          0.00000000	
          1.52800000	         53.06533831	        377.93885196	        -12.79918713	          0.90045167	          0.00000000	          0.10308178	          0.00000000	          0.00000000	          0.00000000	          0.00000000	          0.00000000	          0.00000000	          0.00000000	          1.78055169	          0.00000000	          0.00000000	          0.00000000	          0.00000000	
          1.53200000	         56.00951401	        393.17576938	        -12.83377561	          0.90085974	          0.00000000	          0.10279682	          0.00000000	          0.00000000	          0.00000000	          0.00000000	          0.00000000	          0.00000000	          0.00000000	          1.86428818	          0.00000000	          0.00000000	          0.00000000	          0.00000000	
          1.53600000	         59.10714811	        409.30781324	        -12.43221459	          0.90128526	          0.00000000	          0.10247440	          0.00000000	          0.00000000	          0.00000000	          0.00000000	          0.00000000	          0.00000000	          0.00000000	          1.94928635	          0.00000000	          0.00000000	          0.00000000	          0.00000000	
          1.54000000	         62.45023993	        426.21793454	        -11.81222553	          0.90170548	          0.00000000	          0.10212446	          0.00000000	          0.00000000	          0.00000000	          0.00000000	          0.00000000	          0.00000000	          0.00000000	          2.04037834	          0.00000000	          0.00000000	          0.00000000	          0.00000000	
          1.54400000	         66.12078965	        443.79102158	        -11.21722722	          0.90211510	          0.00000000	          0.10176758	          0.00000000	          0.00000000	          0.00000000	          0.00000000	          0.00000000	          0.00000000	          0.00000000	          2.14215661	          0.00000000	          0.00000000	          0.00000000	          0.00000000	
          1.54800000	         70.18372601	        461.91331221	        -10.86664624	          0.90250097	          0.00000000	          0.10142205	          0.00000000	          0.00000000	          0.00000000	          0.00000000	          0.00000000	          0.00000000	          0.00000000	          2.25791125	          0.00000000	          0.00000000	          0.00000000	          0.00000000	
          1.55200000	         74.68247626	        480.47283496	        -10.91237343	          0.90284754	          0.00000000	          0.10109080	          0.00000000	          0.00000000	          0.00000000	          0.00000000	          0.00000000	          0.00000000	          0.00000000	          2.38892929	          0.00000000	          0.00000000	          0.00000000	          0.00000000	
          1.55600000	         79.63655307	        499.35943525	        -11.40984742	          0.90315340	          0.00000000	          0.10076456	          0.00000000	          0.00000000	          0.00000000	          0.00000000	          0.00000000	          0.00000000	          0.00000000	          2.53416861	          0.00000000	          0.00000000	          0.00000000	          0.00000000	
          1.56000000	         85.04391447	        518.46939573	        -12.31087801	          0.90341724	          0.00000000	          0.10043563	          0.00000000	          0.00000000	          0.00000000	          0.00000000	          0.00000000	          0.00000000	          0.00000000	          2.69023872	          0.00000000	          0.00000000	          0.00000000	          0.00000000	
          1.56400000	         90.88746258	        537.70804169	        -13.47927850	          0.90364391	          0.00000000	          0.10010749	          0.00000000	          0.00000000	          0.00000000	          0.00000000	          0.00000000	          0.00000000	          0.00000000	          2.85170474	          0.00000000	          0.00000000	          0.00000000	          0.00000000	
          1.56800000	         97.14374088	        556.98446589	        -14.72258466	          0.90385346	          0.00000000	          0.09978945	          0.00000000	          0.00000000	          0.00000000	          0.00000000	          0.00000000	          0.00000000	          0.00000000	          3.01182604	          0.00000000	          0.00000000	          0.00000000	          0.00000000	
          1.57200000	        103.78495682	        576.19830376	        -15.83257822	          0.90405376	          0.00000000	          0.09948696	          0.00000000	          0.00000000	          0.00000000	          0.00000000	          0.00000000	          0.00000000	          0.00000000	          3.16378331	          0.00000000	          0.00000000	          0.00000000	          0.00000000	
          1.57600000	        110.77023681	        595.22959484	        -16.62960651	          0.90424354	          0.00000000	          0.09920410	          0.00000000	          0.00000000	          0.00000000	          0.00000000	          0.00000000	          0.00000000	          0.00000000	          3.30222192	          0.00000000	          0.00000000	          0.00000000	          0.00000000	
          1.58000000	        118.03693220	        613.93974437	        -17.00071052	          0.90442614	          0.00000000	          0.09894374	          0.00000000	          0.00000000	          0.00000000	          0.00000000	          0.00000000	          0.00000000	          0.00000000	          3.42465730	          0.00000000	          0.00000000	          0.00000000	          0.00000000	
          1.58400000	        125.49900856	        632.17294999	        -16.92027598	          0.90459466	          0.00000000	          0.09870746	          0.00000000	          0.00000000	          0.00000000	          0.00000000	          0.00000000	          0.00000000	          0.00000000	          3.53215198	          0.00000000	          0.00000000	          0.00000000	          0.00000000	
